# xmcd
#
# Track frame offsets:
#	150
#	17250
#	29325
#	48900
#	65175
#	82575
#	101025
#	116925
#	131175
#	142800
#	157800
#	172950
#	190500
#	212175
#	230100
#	248325
#	263850
#
# Disc length: 3540 seconds
#
# Revision: 2
# Processed by: cddbd v1.5.2PL0 Copyright (c) Steve Scherf et al.
# Submitted via: audiograbber 1.83.01
#
DISCID=dd0dd211
DTITLE=Various Artist - Big Country disk 005
DYEAR=1900
DGENRE=Karaoke
TTITLE0=Carrie Underwood - Jesus, Take The Wheel
TTITLE1=Gretchen Wilson - I Don't Feel Like Loving You Today
TTITLE2=Faith Hill - You Stay With Me
TTITLE3=Toby Keith and Merle Haggard - She Aint Hooked On Me No More
TTITLE4=Chris Cagle - Miss Me Baby
TTITLE5=Little Big Town - Boondocks
TTITLE6=Josh Turner - Your Man
TTITLE7=George Strait - She Let Herself Go
TTITLE8=Blake Shelton - Nobody But Me
TTITLE9=Martina McBride - Rose Garden
TTITLE10=Van Zant - Nobody Gonna Tell Me What To Do
TTITLE11=Reba McEntire - You're Gonna Be
TTITLE12=Sugarland - Stand Back Up
TTITLE13=Keith Urban - You'll Think Of Me
TTITLE14=Keith Urban - You're My Better Half
TTITLE15=Uknown - Good Ride Cowboy
TTITLE16=Uknown - Untitled
EXTD=
EXTT0=
EXTT1=
EXTT2=
EXTT3=
EXTT4=
EXTT5=
EXTT6=
EXTT7=
EXTT8=
EXTT9=
EXTT10=
EXTT11=
EXTT12=
EXTT13=
EXTT14=
EXTT15=
EXTT16=
PLAYORDER=
